<svg width="61" height="61" viewBox="0 0 61 61" fill="none" xmlns="http://www.w3.org/2000/svg">
<path d="M45.75 5.5455C44.9099 5.5455 44.0319 5.65663 43.1202 5.82598C40.0668 2.26658 35.5467 0 30.5001 0C25.4534 0 20.9332 2.26658 17.8799 5.82585C16.9681 5.65663 16.0901 5.54537 15.2501 5.54537C6.84106 5.5455 0 12.3866 0 20.7955C0 26.5575 3.24929 31.7956 8.35068 34.3856L8.32365 55.3367C8.32235 56.849 8.90982 58.2706 9.97806 59.3401C11.0476 60.4111 12.4678 61 13.9801 61H47.0254C50.1448 61 52.6819 58.4628 52.6819 55.3435V34.3653C57.7644 31.7686 61.0001 26.5385 61.0001 20.7955C61 12.3866 54.1589 5.5455 45.75 5.5455ZM49.9091 55.3436C49.9091 56.9331 48.6149 58.2274 47.0253 58.2274H13.98C13.2097 58.2274 12.4853 57.9268 11.9397 57.3813C11.3954 56.8357 11.0949 56.1114 11.0962 55.3397L11.1035 49.9091H49.9091V55.3436ZM50.7675 32.2072C50.6943 32.237 50.6253 32.2722 50.5603 32.3142C50.3856 32.4225 50.2421 32.5661 50.1351 32.7312C50.0269 32.8949 49.9537 33.0846 49.9239 33.2876C49.9117 33.3648 49.9077 33.442 49.909 33.5205V47.1363H11.107L11.1248 33.5393C11.1261 33.4635 11.1221 33.3863 11.1113 33.3119C11.0815 33.102 11.0043 32.907 10.8919 32.7378C10.7862 32.5794 10.6482 32.4413 10.4803 32.3357C10.4113 32.2924 10.3381 32.2544 10.2623 32.2232C5.712 30.2334 2.77269 25.7519 2.77269 20.7955C2.77269 13.915 8.36966 8.31819 15.25 8.31819C15.5189 8.31819 15.8027 8.35068 16.0813 8.37265C14.6786 10.8104 13.8636 13.6274 13.8636 16.6364C13.8636 17.4027 14.4837 18.0228 15.25 18.0228C16.0163 18.0228 16.6364 17.4027 16.6364 16.6364C16.6364 8.99235 22.856 2.77269 30.5001 2.77269C38.1441 2.77269 44.3636 8.99235 44.3636 16.6364C44.3636 17.4027 44.9837 18.0228 45.75 18.0228C46.5163 18.0228 47.1364 17.4027 47.1364 16.6364C47.1364 13.6274 46.3214 10.8105 44.9187 8.37265C45.1973 8.35068 45.4811 8.31819 45.75 8.31819C52.6305 8.31819 58.2273 13.9152 58.2273 20.7955C58.2273 25.7344 55.3002 30.2102 50.7675 32.2072Z" fill="white"/>
</svg>
